HIERARCHY
ROOT Hips
{
	OFFSET 0.000000 71.427986 0.000000
	CHANNELS 6 Xposition Yposition Zposition Xrotation Yrotation Zrotation
	JOINT Pelvis
	{
		OFFSET 0.000000 0.000000 0.000000
		CHANNELS 3 Xrotation Yrotation Zrotation
		JOINT LeftUpLeg
		{
			OFFSET 6.797100 -2.508499 -1.318700
			CHANNELS 3 Xrotation Yrotation Zrotation
			JOINT LeftLeg
			{
				OFFSET 0.069008 -29.241863 0.690200
				CHANNELS 3 Xrotation Yrotation Zrotation
				JOINT LeftFoot
				{
					OFFSET -0.069008 -29.568123 -0.266800
					CHANNELS 3 Xrotation Yrotation Zrotation
					JOINT LeftToeBase
					{
						OFFSET 3.145500 -8.631000 16.059900
						CHANNELS 3 Xrotation Yrotation Zrotation
						End Site
						{
							OFFSET 0.000000 18.501587 0.000000
						}
					}
				}
			}
			JOINT Left_ShortSleeve
			{
				OFFSET 0.265923 -10.480953 1.153800
				CHANNELS 3 Xrotation Yrotation Zrotation
				End Site
				{
					OFFSET 1.725763 19.823879 0.000000
				}
			}
		}
		JOINT RightUpLeg
		{
			OFFSET -6.797100 -2.508499 -1.318700
			CHANNELS 3 Xrotation Yrotation Zrotation
			JOINT RightLeg
			{
				OFFSET -0.082453 -29.241932 0.688000
				CHANNELS 3 Xrotation Yrotation Zrotation
				JOINT RightFoot
				{
					OFFSET 0.082453 -29.568058 -0.264600
					CHANNELS 3 Xrotation Yrotation Zrotation
					JOINT RightToeBase
					{
						OFFSET -3.115300 -8.682800 16.113400
						CHANNELS 3 Xrotation Yrotation Zrotation
						End Site
						{
							OFFSET 0.000000 18.567114 0.000000
						}
					}
				}
			}
			JOINT Right_ShortSleeve
			{
				OFFSET -0.265923 -10.480953 1.153800
				CHANNELS 3 Xrotation Yrotation Zrotation
				End Site
				{
					OFFSET -1.725766 19.823910 0.000000
				}
			}
		}
	}
	JOINT Spine
	{
		OFFSET 0.000000 13.368103 0.470500
		CHANNELS 3 Xrotation Yrotation Zrotation
		JOINT Spine1
		{
			OFFSET 0.147000 13.837402 0.538800
			CHANNELS 3 Xrotation Yrotation Zrotation
			JOINT Spine2
			{
				OFFSET 0.168000 16.242897 -1.435500
				CHANNELS 3 Xrotation Yrotation Zrotation
				JOINT Neck
				{
					OFFSET 0.217200 18.631500 -1.679100
					CHANNELS 3 Xrotation Yrotation Zrotation
					JOINT Head
					{
						OFFSET 0.000000 6.599396 1.385900
						CHANNELS 3 Xrotation Yrotation Zrotation
						JOINT Hat
						{
							OFFSET -0.532200 27.220596 -10.096100
							CHANNELS 3 Xrotation Yrotation Zrotation
							End Site
							{
								OFFSET 0.000000 22.029861 0.000000
							}
						}
						JOINT HairD
						{
							OFFSET -10.777400 17.437393 -1.325900
							CHANNELS 3 Xrotation Yrotation Zrotation
							JOINT HairD1
							{
								OFFSET -3.290299 -11.051193 1.062200
								CHANNELS 3 Xrotation Yrotation Zrotation
								End Site
								{
									OFFSET 0.000000 11.579437 0.000000
								}
							}
						}
						JOINT HairB
						{
							OFFSET -10.777400 17.437393 1.467900
							CHANNELS 3 Xrotation Yrotation Zrotation
							JOINT HairB1
							{
								OFFSET -1.561200 -12.956299 3.590200
								CHANNELS 3 Xrotation Yrotation Zrotation
								End Site
								{
									OFFSET 0.000000 13.534866 0.000000
								}
							}
						}
						JOINT HairA
						{
							OFFSET 9.713100 17.437393 1.467900
							CHANNELS 3 Xrotation Yrotation Zrotation
							JOINT HairA1
							{
								OFFSET 1.561200 -12.956299 3.590200
								CHANNELS 3 Xrotation Yrotation Zrotation
								End Site
								{
									OFFSET 0.000000 13.534866 0.000000
								}
							}
						}
						JOINT HairC
						{
							OFFSET 9.713100 17.437393 -1.325900
							CHANNELS 3 Xrotation Yrotation Zrotation
							JOINT HairC1
							{
								OFFSET 3.290300 -11.051193 1.062200
								CHANNELS 3 Xrotation Yrotation Zrotation
								End Site
								{
									OFFSET 0.000000 11.579437 0.000000
								}
							}
						}
					}
				}
				JOINT LeftShoulder
				{
					OFFSET 5.101800 15.108002 -2.763700
					CHANNELS 3 Xrotation Yrotation Zrotation
					JOINT LeftArm
					{
						OFFSET 9.825497 2.506317 -1.597400
						CHANNELS 3 Xrotation Yrotation Zrotation
						JOINT LeftForeArm
						{
							OFFSET 21.966244 0.000000 0.000000
							CHANNELS 3 Xrotation Yrotation Zrotation
							JOINT LeftHand
							{
								OFFSET 33.879036 0.000000 0.000000
								CHANNELS 3 Xrotation Yrotation Zrotation
								JOINT LeftHandThumb1
								{
									OFFSET 6.715286 -2.359680 3.363841
									CHANNELS 3 Xrotation Yrotation Zrotation
									JOINT LeftHandThumb2
									{
										OFFSET 2.507072 -1.447464 1.447461
										CHANNELS 3 Xrotation Yrotation Zrotation
										JOINT LeftHandThumb3
										{
											OFFSET 2.898338 -1.673355 1.673357
											CHANNELS 3 Xrotation Yrotation Zrotation
											End Site
											{
												OFFSET -0.295959 3.727692 -0.131651
											}
										}
									}
								}
								JOINT LeftHandIndex1
								{
									OFFSET 14.190811 -0.254547 3.840278
									CHANNELS 3 Xrotation Yrotation Zrotation
									JOINT LeftHandIndex2
									{
										OFFSET 3.551727 0.000000 -0.000000
										CHANNELS 3 Xrotation Yrotation Zrotation
										JOINT LeftHandIndex3
										{
											OFFSET 2.894196 0.000000 0.000000
											CHANNELS 3 Xrotation Yrotation Zrotation
											End Site
											{
												OFFSET -1.000603 2.690872 0.366626
											}
										}
									}
								}
								JOINT LeftHandMiddle1
								{
									OFFSET 13.776489 0.000000 0.000000
									CHANNELS 3 Xrotation Yrotation Zrotation
									JOINT LeftHandMiddle2
									{
										OFFSET 3.438232 0.000000 0.000000
										CHANNELS 3 Xrotation Yrotation Zrotation
										JOINT LeftHandMiddle3
										{
											OFFSET 3.691551 0.000000 0.000000
											CHANNELS 3 Xrotation Yrotation Zrotation
											End Site
											{
												OFFSET -1.082298 3.499527 0.457670
											}
										}
									}
								}
								JOINT LeftHandRing1
								{
									OFFSET 13.966164 -0.268127 -3.067488
									CHANNELS 3 Xrotation Yrotation Zrotation
									JOINT LeftHandRing2
									{
										OFFSET 3.162567 0.000000 0.000000
										CHANNELS 3 Xrotation Yrotation Zrotation
										JOINT LeftHandRing3
										{
											OFFSET 3.324348 0.000000 0.000000
											CHANNELS 3 Xrotation Yrotation Zrotation
											End Site
											{
												OFFSET -0.861900 3.184998 0.405154
											}
										}
									}
								}
								JOINT LeftHandPinky1
								{
									OFFSET 13.131393 -0.168503 -5.746925
									CHANNELS 3 Xrotation Yrotation Zrotation
									JOINT LeftHandPinky2
									{
										OFFSET 2.849182 0.000000 0.000000
										CHANNELS 3 Xrotation Yrotation Zrotation
										JOINT LeftHandPinky3
										{
											OFFSET 2.805038 0.000000 0.000000
											CHANNELS 3 Xrotation Yrotation Zrotation
											End Site
											{
												OFFSET -0.882500 2.642609 0.325652
											}
										}
									}
								}
							}
							JOINT Left_Sleeve
							{
								OFFSET 6.592125 -0.646545 0.805568
								CHANNELS 3 Xrotation Yrotation Zrotation
								End Site
								{
									OFFSET -0.000179 20.275787 -0.000000
								}
							}
						}
					}
				}
				JOINT RightShoulder
				{
					OFFSET -5.731700 15.108002 -2.763700
					CHANNELS 3 Xrotation Yrotation Zrotation
					JOINT RightArm
					{
						OFFSET -9.825497 2.506317 -1.597400
						CHANNELS 3 Xrotation Yrotation Zrotation
						JOINT RightForeArm
						{
							OFFSET -21.966242 0.000000 0.000000
							CHANNELS 3 Xrotation Yrotation Zrotation
							JOINT RightHand
							{
								OFFSET -33.879032 0.000000 0.000000
								CHANNELS 3 Xrotation Yrotation Zrotation
								JOINT RightHandThumb1
								{
									OFFSET -6.715286 -2.359680 3.363841
									CHANNELS 3 Xrotation Yrotation Zrotation
									JOINT RightHandThumb2
									{
										OFFSET -2.507072 -1.447464 1.447461
										CHANNELS 3 Xrotation Yrotation Zrotation
										JOINT RightHandThumb3
										{
											OFFSET -2.898338 -1.673355 1.673357
											CHANNELS 3 Xrotation Yrotation Zrotation
											End Site
											{
												OFFSET 0.295959 3.727692 -0.131651
											}
										}
									}
								}
								JOINT RightHandIndex1
								{
									OFFSET -14.190811 -0.254547 3.840278
									CHANNELS 3 Xrotation Yrotation Zrotation
									JOINT RightHandIndex2
									{
										OFFSET -3.551727 0.000000 -0.000000
										CHANNELS 3 Xrotation Yrotation Zrotation
										JOINT RightHandIndex3
										{
											OFFSET -2.894196 0.000000 0.000000
											CHANNELS 3 Xrotation Yrotation Zrotation
											End Site
											{
												OFFSET 1.000603 2.690872 0.366626
											}
										}
									}
								}
								JOINT RightHandMiddle1
								{
									OFFSET -13.776489 0.000000 0.000000
									CHANNELS 3 Xrotation Yrotation Zrotation
									JOINT RightHandMiddle2
									{
										OFFSET -3.438232 0.000000 0.000000
										CHANNELS 3 Xrotation Yrotation Zrotation
										JOINT RightHandMiddle3
										{
											OFFSET -3.691551 0.000000 0.000000
											CHANNELS 3 Xrotation Yrotation Zrotation
											End Site
											{
												OFFSET 1.082298 3.499527 0.457670
											}
										}
									}
								}
								JOINT RightHandRing1
								{
									OFFSET -13.966164 -0.268127 -3.067488
									CHANNELS 3 Xrotation Yrotation Zrotation
									JOINT RightHandRing2
									{
										OFFSET -3.162567 0.000000 0.000000
										CHANNELS 3 Xrotation Yrotation Zrotation
										JOINT RightHandRing3
										{
											OFFSET -3.324348 0.000000 0.000000
											CHANNELS 3 Xrotation Yrotation Zrotation
											End Site
											{
												OFFSET 0.861900 3.184998 0.405154
											}
										}
									}
								}
								JOINT RightHandPinky1
								{
									OFFSET -13.131393 -0.168503 -5.746925
									CHANNELS 3 Xrotation Yrotation Zrotation
									JOINT RightHandPinky2
									{
										OFFSET -2.849182 0.000000 0.000000
										CHANNELS 3 Xrotation Yrotation Zrotation
										JOINT RightHandPinky3
										{
											OFFSET -2.805038 0.000000 0.000000
											CHANNELS 3 Xrotation Yrotation Zrotation
											End Site
											{
												OFFSET 0.882500 2.642609 0.325652
											}
										}
									}
								}
							}
							JOINT Right_Sleeve
							{
								OFFSET -6.592125 -0.646545 0.805568
								CHANNELS 3 Xrotation Yrotation Zrotation
								End Site
								{
									OFFSET 0.000179 20.275787 -0.000000
								}
							}
						}
					}
				}
				JOINT Bind_Right_JacketString
				{
					OFFSET -3.534800 11.969597 7.200700
					CHANNELS 3 Xrotation Yrotation Zrotation
					JOINT Bind_Right_JacketString1
					{
						OFFSET -0.319900 -6.102600 2.794100
						CHANNELS 3 Xrotation Yrotation Zrotation
						End Site
						{
							OFFSET 0.000000 6.719452 0.000000
						}
					}
				}
				JOINT Bind_Left_JacketString
				{
					OFFSET 2.904800 11.969597 7.200700
					CHANNELS 3 Xrotation Yrotation Zrotation
					JOINT Bind_Left_JacketString1
					{
						OFFSET 0.364800 -5.904503 3.186800
						CHANNELS 3 Xrotation Yrotation Zrotation
						End Site
						{
							OFFSET 0.000000 6.719513 0.000000
						}
					}
				}
				JOINT HairE
				{
					OFFSET 5.915200 17.612701 -11.592200
					CHANNELS 3 Xrotation Yrotation Zrotation
					JOINT HairE1
					{
						OFFSET 0.289200 -7.171898 -1.284500
						CHANNELS 3 Xrotation Yrotation Zrotation
						End Site
						{
							OFFSET 0.000000 7.291756 0.000000
						}
					}
				}
				JOINT HairF
				{
					OFFSET -0.864800 17.612701 -11.592200
					CHANNELS 3 Xrotation Yrotation Zrotation
					JOINT HairF1
					{
						OFFSET 0.000000 -14.087097 -2.127501
						CHANNELS 3 Xrotation Yrotation Zrotation
						End Site
						{
							OFFSET 0.000000 14.246841 0.000000
						}
					}
				}
				JOINT HairG
				{
					OFFSET -8.087700 17.612701 -11.592200
					CHANNELS 3 Xrotation Yrotation Zrotation
					JOINT HairG1
					{
						OFFSET -0.293600 -6.081398 -0.910100
						CHANNELS 3 Xrotation Yrotation Zrotation
						End Site
						{
							OFFSET 0.000000 6.156120 0.000000
						}
					}
				}
			}
		}
	}
	JOINT Pouch
	{
		OFFSET 0.000000 4.394501 10.847300
		CHANNELS 3 Xrotation Yrotation Zrotation
		End Site
		{
			OFFSET 0.000000 21.880577 0.000000
		}
	}
	JOINT Bag
	{
		OFFSET -13.229000 4.813004 -0.593300
		CHANNELS 3 Xrotation Yrotation Zrotation
		End Site
		{
			OFFSET 0.000000 21.880577 0.000000
		}
	}
	JOINT OccupyGuyFacialAnim_Joint
	{
		OFFSET 1.000000 -70.206398 -1.655000
		CHANNELS 3 Xrotation Yrotation Zrotation
		End Site
		{
			OFFSET 0.000000 21.880577 0.000000
		}
	}
}
MOTION
Frames: 4
Frame Time: 0.033333
-0.553539 55.592854 0.556574 -47.080924 -51.230117 -53.379325 0.000000 0.000001 0.000000 -28.566626 5.245310 -9.265358 38.863199 -1.248518 -1.157225 25.463230 4.406171 21.622777 0.000000 -0.000000 0.000000 0.000001 0.000001 -0.000000 -8.106410 -13.958069 -18.835218 98.329172 3.290636 1.400085 -8.796817 -0.889265 23.336052 0.000001 -0.000001 0.000001 -0.000001 -0.000000 -0.000001 14.111295 10.285501 -3.218723 1.361566 2.848209 0.144733 1.380800 2.822176 0.114129 3.479109 -1.932770 0.218961 8.764241 -20.296776 11.241922 -0.000000 -0.000000 -0.000000 -0.000000 -0.000000 -0.000000 -0.000000 -0.000000 -0.000001 -0.000000 -0.000000 -0.000000 -0.000000 0.000001 -0.000000 -0.000000 -0.000000 -0.000000 -0.000000 0.000001 -0.000000 -0.000000 -0.000000 -0.000000 -0.000000 -0.000000 -0.000000 -0.967289 10.228406 2.950898 23.196279 22.392126 -11.275953 0.000000 -23.097045 0.000003 -6.696729 -1.976015 -12.948057 4.972948 -0.919251 4.455781 7.416836 13.559449 3.778475 0.000001 -0.000003 0.000001 0.332630 -2.971063 -1.456198 0.830579 3.008821 -30.858259 -0.000003 0.000001 -0.000002 -0.686694 0.199382 -14.655443 0.595560 2.575496 -26.036333 0.000001 -0.000001 -0.000001 0.933458 5.741926 -20.414015 0.491125 2.349926 -23.606365 -0.000001 -0.000000 0.000003 2.244612 16.205449 -22.664091 0.579242 2.541871 -25.670851 -0.000001 0.000000 0.000003 0.000001 0.000002 -0.000001 0.821067 3.691061 -4.575249 29.787234 -12.015559 12.825472 -0.000004 44.662293 0.000002 26.446670 4.984176 32.606541 3.998971 2.832311 -3.864456 7.802607 -15.416775 -4.481831 -0.000001 -0.000002 0.000002 0.387328 3.131508 0.644086 0.662472 -2.395992 30.906647 -0.000002 0.000000 0.000002 -0.709924 0.247539 13.910239 0.475082 -2.051042 26.079655 -0.000000 -0.000001 -0.000003 0.807598 -5.199871 19.769380 0.391799 -1.871434 23.646699 -0.000000 -0.000002 -0.000002 1.997378 -15.634347 22.197632 0.462052 -2.024255 25.713731 -0.000002 0.000001 -0.000001 0.000001 0.000001 -0.000000 -0.000000 -0.000004 -0.000001 -0.000001 -0.000002 -0.000002 -0.000000 -0.000004 -0.000000 -0.000000 -0.000004 -0.000000 -0.000000 -0.000004 -0.000001 -0.000001 -0.000002 -0.000002 -0.000000 -0.000004 -0.000000 -0.000000 -0.000004 -0.000000 -0.000000 -0.000004 -0.000001 -0.000001 -0.000002 -0.000002 0.000000 0.000001 0.000000 0.000000 0.000001 0.000000 0.000000 0.000001 0.000000 
-0.394833 56.553917 0.877124 -47.316675 -53.566616 -50.797029 -0.000001 0.000001 0.000000 -30.129382 6.547975 -8.690078 45.571449 1.608744 -2.272464 15.928631 3.668369 21.440590 0.000000 -0.000001 0.000000 0.000003 0.000000 -0.000002 -11.687031 -11.371037 -14.907275 99.765923 -6.068694 -0.473422 -7.716310 -10.955096 27.025810 0.000001 0.000000 -0.000000 -0.000002 0.000000 -0.000000 19.374767 10.636194 -1.839525 2.433624 3.107931 -0.315869 2.433610 3.150002 -0.431675 2.022948 -0.856278 -0.636866 -2.341930 -7.201636 7.033064 -0.000000 0.000001 -0.000001 -0.000000 0.000001 -0.000001 -0.000000 0.000001 -0.000001 -0.000000 0.000001 -0.000000 -0.000000 -0.000001 -0.000000 -0.000000 0.000001 -0.000000 -0.000000 -0.000001 -0.000000 -0.000000 0.000001 -0.000001 -0.000000 0.000001 -0.000001 -0.199028 11.536373 3.343291 22.955385 18.696629 -15.607807 -0.000002 -25.489730 0.000005 -3.971583 0.149615 -17.173006 3.030289 -1.312556 4.245190 7.117024 14.055824 3.227481 0.000001 0.000002 0.000002 0.443060 -1.197072 -5.689287 0.623523 2.631926 -26.651943 0.000005 0.000002 -0.000003 -0.484885 1.298743 -16.275767 0.495171 2.359105 -23.704421 0.000003 0.000002 -0.000001 0.886498 5.553376 -21.508226 0.422812 2.187130 -21.880989 0.000002 -0.000002 -0.000001 0.957841 13.207306 -21.891567 0.481953 2.328817 -23.381375 -0.000000 0.000001 -0.000000 0.000001 -0.000003 0.000001 -1.110129 11.938192 0.893034 26.940161 -3.269492 12.007298 0.000008 68.452279 -0.000020 11.978380 3.582646 12.650932 2.311282 2.831779 -3.414608 7.566344 -16.788888 -2.664493 -0.000000 0.000000 -0.000001 0.301609 1.156564 7.448695 0.592557 -2.275274 29.191699 -0.000002 -0.000002 -0.000002 -0.556502 -1.025544 17.234215 0.459395 -2.018716 25.638206 -0.000001 0.000000 0.000001 0.762645 -4.971242 21.592987 0.397670 -1.884838 23.826466 0.000001 -0.000001 0.000001 0.805497 -12.780314 23.321479 0.449399 -1.997743 25.352643 -0.000000 0.000005 0.000003 -0.000001 -0.000000 -0.000000 -0.000001 -0.000000 0.000000 -0.000001 -0.000002 -0.000001 -0.000001 -0.000000 0.000001 -0.000001 -0.000000 0.000001 -0.000001 -0.000000 0.000000 -0.000001 -0.000002 -0.000001 -0.000001 -0.000000 0.000001 -0.000001 -0.000000 0.000001 -0.000001 -0.000000 0.000000 -0.000001 -0.000002 -0.000001 -0.000001 0.000001 0.000000 -0.000001 0.000001 0.000000 -0.000001 0.000001 0.000000 
0.736937 58.865334 0.586036 -40.707709 -54.607882 -41.222343 0.000001 -0.000001 -0.000000 -28.302940 5.823685 -10.033081 42.654115 3.337571 -3.051140 11.676183 1.872124 19.979862 0.000000 0.000002 -0.000000 0.000002 0.000000 -0.000002 -13.313271 -10.397628 -8.269406 93.616601 -6.949536 -0.904283 -15.279480 -7.895200 19.613681 0.000001 -0.000001 -0.000000 0.000002 -0.000001 -0.000000 23.709359 10.837032 0.125901 3.383745 3.187613 -0.585853 3.377920 3.278538 -0.757979 0.886385 0.204260 -1.447570 -11.000769 5.738976 3.960563 -0.000000 -0.000002 -0.000000 -0.000000 -0.000002 -0.000000 -0.000000 -0.000002 0.000000 -0.000000 -0.000002 0.000000 -0.000000 -0.000002 -0.000000 -0.000000 -0.000002 0.000000 -0.000000 -0.000002 -0.000000 -0.000000 -0.000002 -0.000000 -0.000000 -0.000002 -0.000000 1.914620 13.941272 4.822480 21.482803 4.775816 -29.249363 0.000004 -24.056741 0.000012 1.377762 -0.934599 -26.211251 0.930424 -1.762401 3.859306 6.792437 14.545694 2.589821 -0.000003 0.000003 -0.000003 0.636463 0.703055 -10.544601 0.427203 2.197988 -21.995478 0.000001 0.000002 -0.000002 -0.204827 2.487600 -18.315110 0.393055 2.111559 -21.087413 -0.000001 0.000002 0.000001 0.832652 5.359485 -22.972404 0.352207 2.002473 -19.949296 0.000003 0.000003 -0.000000 0.199105 9.701430 -21.103835 0.381868 2.082367 -20.781766 -0.000000 0.000001 0.000003 0.000001 0.000001 0.000000 -5.136943 20.068122 9.817632 28.472311 4.758624 14.139175 0.000286 84.149399 -0.000290 -3.738449 9.233181 0.075253 0.265059 2.967568 -2.786747 7.336455 -18.227931 -0.682525 -0.000001 0.000001 0.000002 0.304536 -1.024070 14.665707 0.501743 -2.104634 26.815249 -0.000004 -0.000001 0.000002 -0.226700 -2.392079 20.555502 0.426069 -1.947777 24.675064 -0.000004 0.000001 -0.000001 0.670250 -4.687435 23.201015 0.389661 -1.866529 23.580907 0.000001 -0.000003 0.000000 0.141546 -9.412491 24.231141 0.420155 -1.934890 24.500744 0.000000 0.000001 -0.000003 0.000000 -0.000002 0.000003 0.000000 0.000001 -0.000000 0.000000 -0.000001 0.000001 0.000000 0.000001 -0.000000 0.000000 0.000001 -0.000000 0.000000 0.000001 -0.000000 0.000000 -0.000001 0.000001 0.000000 0.000001 -0.000000 0.000000 0.000001 -0.000000 0.000000 0.000001 -0.000000 0.000000 -0.000001 0.000001 0.000001 -0.000001 -0.000000 0.000001 -0.000001 -0.000000 0.000001 -0.000001 -0.000000 
2.618176 61.673874 -0.165903 -30.949442 -52.343544 -29.587440 -0.000001 -0.000001 -0.000000 -25.134727 3.954524 -11.599956 34.469287 1.182794 -2.711323 12.163670 0.963455 15.134646 -0.000000 -0.000001 0.000000 -0.000001 -0.000003 -0.000001 -13.570251 -9.366652 -0.824779 82.759695 -9.443271 -0.956583 -22.364930 0.260503 8.687270 -0.000001 0.000001 0.000000 -0.000001 0.000001 -0.000000 27.045532 11.248179 3.261037 4.395112 3.204913 -0.591793 4.396262 3.336786 -0.815952 0.143252 0.888236 -1.980511 -17.135848 15.523167 -0.389542 -0.000000 0.000001 0.000000 -0.000000 0.000001 0.000000 -0.000000 0.000001 0.000000 -0.000000 0.000001 0.000000 -0.000000 0.000003 -0.000000 -0.000000 0.000001 0.000000 -0.000000 0.000003 -0.000000 -0.000000 0.000001 0.000000 -0.000000 0.000001 0.000000 2.559691 7.248974 3.570038 22.319745 -0.999595 -44.104584 0.000006 -27.803975 0.000003 -6.062957 -5.813064 -25.988393 -0.982862 -2.111308 3.297607 6.535390 15.085289 2.025053 0.000001 -0.000002 -0.000003 0.925309 2.511091 -15.816420 0.312296 1.888976 -18.774202 -0.000000 0.000001 -0.000002 0.140343 3.644940 -20.999119 0.345377 1.983548 -19.752887 -0.000001 -0.000001 0.000001 0.811100 5.254243 -25.205594 0.327107 1.931955 -19.218066 0.000003 -0.000001 0.000003 0.163656 6.653506 -21.391082 0.334089 1.951818 -19.423741 -0.000004 -0.000002 0.000001 -0.000000 0.000001 0.000004 -7.613346 25.782509 4.845444 21.255028 19.513294 33.490555 0.000068 93.126569 -0.000133 -1.777092 10.860821 -9.082541 -1.525937 3.035048 -2.007062 7.185481 -19.614319 1.172182 -0.000002 -0.000003 0.000002 0.406347 -2.975866 21.473343 0.440647 -1.979208 25.101005 0.000001 -0.000000 0.000000 0.182936 -3.573272 23.917618 0.410401 -1.913353 24.210239 0.000003 -0.000004 -0.000001 0.591911 -4.479537 25.023684 0.395414 -1.879677 23.757316 0.000001 -0.000004 0.000001 0.171223 -6.432578 25.460152 0.408052 -1.908105 24.139692 -0.000002 -0.000000 0.000004 0.000001 0.000000 -0.000001 -0.000000 -0.000001 -0.000000 0.000001 -0.000001 0.000000 -0.000000 -0.000001 0.000001 -0.000000 -0.000001 0.000001 -0.000000 -0.000001 -0.000000 0.000001 -0.000001 0.000000 -0.000000 -0.000001 0.000001 -0.000000 -0.000001 0.000001 -0.000000 -0.000001 -0.000000 0.000001 -0.000001 0.000000 -0.000001 -0.000001 -0.000000 -0.000001 -0.000001 -0.000000 -0.000001 -0.000001 -0.000000 
